<?xml version="1.0" encoding="UTF-8"?>
<svg width="800" height="450" viewBox="0 0 800 450" fill="none" xmlns="http://www.w3.org/2000/svg">
  <!-- Hotel Management System Dashboard Background -->
  <rect width="800" height="450" rx="8" fill="#F8FAFC"/>
  
  <!-- Header Bar -->
  <rect x="20" y="20" width="760" height="60" rx="6" fill="#FFFFFF" stroke="#E2E8F0"/>
  <rect x="40" y="38" width="120" height="24" rx="4" fill="#3B82F6"/>
  <rect x="180" y="38" width="80" height="24" rx="4" fill="#E2E8F0"/>
  <rect x="280" y="38" width="80" height="24" rx="4" fill="#E2E8F0"/>
  
  <!-- Main Content Area -->
  <rect x="20" y="100" width="500" height="330" rx="6" fill="#FFFFFF" stroke="#E2E8F0"/>
  
  <!-- Stats Cards -->
  <rect x="540" y="100" width="240" height="100" rx="6" fill="#FFFFFF" stroke="#3B82F6"/>
  <rect x="540" y="215" width="240" height="100" rx="6" fill="#FFFFFF" stroke="#10B981"/>
  <rect x="540" y="330" width="240" height="100" rx="6" fill="#FFFFFF" stroke="#F59E0B"/>
  
  <!-- Content Elements -->
  <rect x="40" y="120" width="460" height="40" rx="4" fill="#F1F5F9"/>
  <rect x="40" y="170" width="460" height="40" rx="4" fill="#F1F5F9"/>
  <rect x="40" y="220" width="460" height="40" rx="4" fill="#F1F5F9"/>
  <rect x="40" y="270" width="460" height="40" rx="4" fill="#F1F5F9"/>
  <rect x="40" y="320" width="460" height="40" rx="4" fill="#F1F5F9"/>
  <rect x="40" y="370" width="460" height="40" rx="4" fill="#F1F5F9"/>
  
  <!-- Chart Elements -->
  <path d="M560 160 L580 140 L600 150 L620 130 L640 145 L660 125 L680 135 L700 120 L720 140 L740 130" stroke="#3B82F6" stroke-width="2"/>
  <path d="M560 275 L580 265 L600 285 L620 270 L640 290 L660 275 L680 295 L700 280 L720 300 L740 285" stroke="#10B981" stroke-width="2"/>
  <path d="M560 390 L580 380 L600 400 L620 385 L640 405 L660 390 L680 410 L700 395 L720 415 L740 400" stroke="#F59E0B" stroke-width="2"/>
</svg>
