<?xml version="1.0" encoding="UTF-8"?>
<svg width="800" height="450" viewBox="0 0 800 450" fill="none" xmlns="http://www.w3.org/2000/svg">
  <!-- Cloud Infrastructure Dashboard Background -->
  <rect width="800" height="450" rx="8" fill="#F8FAFC"/>
  
  <!-- Resource Overview Panel -->
  <rect x="20" y="20" width="360" height="200" rx="6" fill="#FFFFFF" stroke="#E2E8F0"/>
  <circle cx="200" cy="120" r="60" fill="none" stroke="#3B82F6" stroke-width="12"/>
  <circle cx="200" cy="120" r="60" fill="none" stroke="#E2E8F0" stroke-width="12" stroke-dasharray="188.4 314"/>
  
  <!-- Server Status Panel -->
  <rect x="400" y="20" width="380" height="200" rx="6" fill="#FFFFFF" stroke="#E2E8F0"/>
  <rect x="420" y="40" width="340" height="30" rx="4" fill="#F0FDF4"/>
  <rect x="420" y="80" width="340" height="30" rx="4" fill="#F0FDF4"/>
  <rect x="420" y="120" width="340" height="30" rx="4" fill="#FEF2F2"/>
  <rect x="420" y="160" width="340" height="30" rx="4" fill="#F0FDF4"/>
  
  <!-- Resource Usage Graphs -->
  <rect x="20" y="240" width="760" height="190" rx="6" fill="#FFFFFF" stroke="#E2E8F0"/>
  
  <!-- CPU Usage Line -->
  <path d="M40 360 C100 320, 160 380, 220 340 C280 300, 340 360, 400 320 C460 280, 520 340, 580 300 C640 260, 700 320, 760 280" 
        stroke="#3B82F6" stroke-width="2" fill="none"/>
        
  <!-- Memory Usage Line -->
  <path d="M40 380 C100 360, 160 400, 220 380 C280 360, 340 400, 400 380 C460 360, 520 400, 580 380 C640 360, 700 400, 760 380" 
        stroke="#10B981" stroke-width="2" fill="none"/>
        
  <!-- Network Usage Line -->
  <path d="M40 400 C100 380, 160 420, 220 400 C280 380, 340 420, 400 400 C460 380, 520 420, 580 400 C640 380, 700 420, 760 400" 
        stroke="#F59E0B" stroke-width="2" fill="none"/>
</svg>
