<?xml version="1.0" encoding="UTF-8"?>
<svg width="800" height="450" viewBox="0 0 800 450" fill="none" xmlns="http://www.w3.org/2000/svg">
  <!-- Flight Booking System Interface Background -->
  <rect width="800" height="450" rx="8" fill="#F8FAFC"/>
  
  <!-- Search Panel -->
  <rect x="20" y="20" width="760" height="100" rx="6" fill="#FFFFFF" stroke="#E2E8F0"/>
  <rect x="40" y="40" width="160" height="60" rx="4" fill="#F1F5F9"/>
  <rect x="220" y="40" width="160" height="60" rx="4" fill="#F1F5F9"/>
  <rect x="400" y="40" width="160" height="60" rx="4" fill="#F1F5F9"/>
  <rect x="580" y="40" width="180" height="60" rx="4" fill="#3B82F6"/>
  
  <!-- Flight Results -->
  <rect x="20" y="140" width="760" height="90" rx="6" fill="#FFFFFF" stroke="#E2E8F0"/>
  <rect x="20" y="240" width="760" height="90" rx="6" fill="#FFFFFF" stroke="#E2E8F0"/>
  <rect x="20" y="340" width="760" height="90" rx="6" fill="#FFFFFF" stroke="#E2E8F0"/>
  
  <!-- Flight Icons and Info -->
  <circle cx="60" cy="185" r="20" fill="#E2E8F0"/>
  <circle cx="60" cy="285" r="20" fill="#E2E8F0"/>
  <circle cx="60" cy="385" r="20" fill="#E2E8F0"/>
  
  <!-- Flight Path Lines -->
  <line x1="100" y1="185" x2="700" y2="185" stroke="#E2E8F0" stroke-width="2" stroke-dasharray="4 4"/>
  <line x1="100" y1="285" x2="700" y2="285" stroke="#E2E8F0" stroke-width="2" stroke-dasharray="4 4"/>
  <line x1="100" y1="385" x2="700" y2="385" stroke="#E2E8F0" stroke-width="2" stroke-dasharray="4 4"/>
  
  <!-- Price Tags -->
  <rect x="620" y="165" width="120" height="40" rx="20" fill="#10B981"/>
  <rect x="620" y="265" width="120" height="40" rx="20" fill="#3B82F6"/>
  <rect x="620" y="365" width="120" height="40" rx="20" fill="#F59E0B"/>
</svg>
